<svg id="Capa_1" enable-background="new 0 0 511.98 511.98" height="512" viewBox="0 0 511.98 511.98" width="512" xmlns="http://www.w3.org/2000/svg"><g><g><path d="m182.592 95.3s-30.805-63.529-111.601-87.296c0 0-91.896 139.439 23.12 208.352" fill="#dd6938"/><path d="m94.11 216.36 6.6-9.02 33.22-45.45-1.06-4.33c0-29.37-15.44-66.7-30.89-96.72-15.49-30.09-30.99-52.83-30.99-52.83s-91.89 139.44 23.12 208.35z" fill="#f9f6f9"/><path d="m84.9 186.46c5.52 10.8 10.8 17.47 15.81 20.88l33.22-45.45-1.06-4.33c0-29.37-15.44-66.7-30.89-96.72-20.15 21.83-47.55 66.03-17.08 125.62z" fill="#dfdde2"/><path d="m331.393 95.3s30.805-63.529 111.601-87.296c0 0 91.896 139.439-23.12 208.352" fill="#dd6938"/><path d="m419.875 216.36-6.6-9.02-33.22-45.45 1.06-4.33c0-29.37 15.44-66.7 30.89-96.72 15.49-30.09 30.99-52.83 30.99-52.83s91.89 139.44-23.12 208.35z" fill="#f9f6f9"/><path d="m429.085 186.46c-5.52 10.8-10.8 17.47-15.81 20.88l-33.22-45.45 1.06-4.33c0-29.37 15.44-66.7 30.89-96.72 20.15 21.83 47.55 66.03 17.08 125.62z" fill="#dfdde2"/><path d="m504.485 358.03c0 18.52-3.45 36.23-9.74 52.53-21.09 54.65-74.13 93.42-136.21 93.42h-205.08c-62.09 0-115.12-38.77-136.21-93.42-6.29-16.3-9.74-34.01-9.74-52.53 0-57.12 32.81-106.57 80.62-130.54v-19.13c0-71.79 58.2-129.99 129.99-129.99h75.75c71.8 0 130 58.2 130 129.99v19.13c47.8 23.97 80.62 73.42 80.62 130.54z" fill="#e4936b"/><path d="m168.963 208.362c0 11.16-3.657 21.963-10.191 31.009-19.13 26.483-31.592 69.757-31.592 118.649 0 80.617 33.871 145.96 75.654 145.96h-47.878c-80.545 0-147.025-64.614-147.458-145.158-.309-57.454 32.592-107.255 80.626-131.336v-19.124c0-71.792 58.192-129.995 129.996-129.995h18.235c-37.219 0-67.392 58.204-67.392 129.995z" fill="#dd6938"/><path d="m494.745 410.56c-21.09 54.65-74.13 93.42-136.21 93.42h-205.08c-62.09 0-115.12-38.77-136.21-93.42 18.36-47.61 60.96-83.17 112.67-91.55 7.66-1.24 15.53-1.89 23.54-1.89h205.08c62.09 0 115.13 38.78 136.21 93.44z" fill="#f9f6f9"/><path d="m309.926 314.269c0-19.878-24.145-35.992-53.93-35.992s-53.93 16.114-53.93 35.992 24.145 51.778 53.93 51.778 53.93-31.9 53.93-51.778z" fill="#665e66"/><path d="m255.998 366.047c-29.787 0-53.932-31.905-53.932-51.778 0-19.885 24.145-36.001 53.932-36.001-14.302 0-25.889 16.116-25.889 36.001 0 19.873 11.587 51.778 25.889 51.778z" fill="#454045"/><path d="m202.835 503.98h-49.38c-62.09 0-115.12-38.77-136.21-93.42 18.36-47.61 60.96-83.17 112.67-91.55-1.79 12.42-2.74 25.5-2.74 39.01 0 80.62 33.88 145.96 75.66 145.96z" fill="#dfdde2"/></g><g><path d="m87.858 121.727c1.484 1.756 3.602 2.66 5.733 2.66 1.709 0 3.429-.582 4.836-1.771 3.164-2.673 3.563-7.405.89-10.569l-17.384-20.578c-2.675-3.163-7.407-3.562-10.569-.889-3.164 2.673-3.563 7.405-.89 10.569z"/><path d="m86.683 134.869c.98-4.025-1.487-8.082-5.512-9.063l-13.906-3.388c-4.024-.978-8.082 1.487-9.063 5.512-.98 4.025 1.487 8.082 5.512 9.063l13.906 3.388c.597.145 1.193.215 1.781.215 3.378 0 6.447-2.299 7.282-5.727z"/><path d="m426.127 121.726 17.384-20.577c2.673-3.164 2.274-7.896-.89-10.569s-7.896-2.276-10.569.889l-17.384 20.577c-2.673 3.164-2.274 7.896.89 10.569 1.408 1.19 3.126 1.771 4.836 1.771 2.131.001 4.25-.903 5.733-2.66z"/><path d="m427.302 134.869c.835 3.428 3.902 5.727 7.281 5.727.587 0 1.185-.07 1.781-.215l13.906-3.388c4.024-.98 6.492-5.038 5.512-9.063-.98-4.024-5.03-6.493-9.063-5.512l-13.906 3.388c-4.024.981-6.492 5.039-5.511 9.063z"/><path d="m488.444 276.331c-14.146-22.448-33.816-40.827-57.084-53.391v-5.026c27.578-18.698 44.779-43.329 51.139-73.278 14.342-67.54-31.292-137.805-33.242-140.764-1.814-2.754-5.217-3.998-8.379-3.067-59.279 17.441-92.822 55.928-106.893 75.99-12.787-3.873-26.269-5.934-40.115-5.934h-75.75c-13.339 0-26.237 1.917-38.442 5.476-14.055-19.886-47.601-58.185-106.566-75.532-3.167-.93-6.564.314-8.38 3.068-.936 1.421-23.046 35.307-32.174 78.587-12.075 57.261 4.549 103.522 48.063 134.072v6.41c-23.265 12.564-42.933 30.943-57.08 53.39-15.401 24.433-23.541 52.685-23.541 81.699 0 84.613 68.842 153.45 153.46 153.45h205.07c84.612 0 153.45-68.837 153.45-153.45 0-29.016-8.138-57.267-23.536-81.7zm-63.5-253.945c-11.647 19.171-29.226 50.607-40.499 82.413-10.7-9.383-22.787-17.017-35.831-22.657 12.204-16.513 36.582-42.995 76.33-59.756zm-260.005 59.179c-13.092 5.512-25.154 12.998-35.82 22.077-11.291-31.412-28.585-62.323-40.088-81.26 39.368 16.611 63.674 42.798 75.908 59.183zm-117.783 4.367c5.662-27.13 17.111-50.822 24.143-63.648 11.119 17.691 33.732 55.986 45.899 92.797-20.489 22.151-33.802 51.031-36.189 82.913-32.394-26.833-43.787-64.46-33.853-112.062zm311.374 410.549h-205.07c-57.771 0-107.383-35.567-128.11-85.949 8.553-20.824 22.176-39.412 39.559-53.887 3.184-2.651 3.615-7.38.965-10.563-2.651-3.184-7.381-3.614-10.563-.964-14.948 12.447-27.39 27.639-36.646 44.606-2.394-10.182-3.665-20.791-3.665-31.693 0-26.18 7.341-51.666 21.23-73.702 13.52-21.451 32.625-38.787 55.252-50.134 2.536-1.272 4.138-3.867 4.138-6.704v-19.13c0-67.547 54.953-122.5 122.5-122.5h75.75c46.327 0 88.176 25.667 109.217 66.983 1.881 3.692 6.399 5.16 10.087 3.28 3.691-1.879 5.159-6.396 3.28-10.086-5.518-10.834-12.324-20.695-20.158-29.468 12.034-37.255 35.132-76.38 46.399-94.305 4.045 7.363 9.547 18.309 14.573 31.48 8.558 22.427 17.336 55.86 10.559 87.777-4.877 22.969-17.22 42.427-36.748 58-.567-8.913-1.991-17.731-4.256-26.314-1.056-4.004-5.153-6.393-9.166-5.338-4.005 1.057-6.395 5.161-5.338 9.166 2.682 10.164 4.042 20.704 4.042 31.327v19.13c0 2.838 1.602 5.433 4.139 6.705 22.629 11.345 41.735 28.681 55.255 50.133 13.887 22.035 21.227 47.521 21.227 73.703 0 10.894-1.27 21.497-3.66 31.672-11.321-20.812-27.303-38.744-47.006-52.509-25.82-18.04-56.174-27.575-87.779-27.575h-41.447c-3.181-22.123-28.869-38.843-61.094-38.843s-57.914 16.72-61.094 38.844h-41.442c-25.903 0-51.5 6.572-74.023 19.004-3.627 2.001-4.943 6.564-2.942 10.19 1.368 2.477 3.931 3.877 6.573 3.877 1.226 0 2.469-.301 3.617-.936 20.311-11.21 43.4-17.136 66.775-17.136h42.611c2.573 9.465 8.336 19.564 16.307 28.108 10.375 11.12 22.786 18.086 35.607 20.155-3.313 22.133-22.447 39.163-45.488 39.163-4.143 0-7.5 3.358-7.5 7.5s3.357 7.5 7.5 7.5c23.033 0 43.121-12.836 53.499-31.727 10.378 18.891 30.466 31.727 53.499 31.727 4.143 0 7.5-3.358 7.5-7.5s-3.357-7.5-7.5-7.5c-23.041 0-42.176-17.029-45.488-39.163 12.821-2.07 25.232-9.035 35.606-20.155 7.972-8.544 13.736-18.644 16.309-28.109h42.613c28.517 0 55.899 8.6 79.188 24.871 21.962 15.344 38.811 36.408 48.91 61.034-20.722 50.384-70.332 85.955-128.103 85.955zm-102.534-137.934c-24.729 0-46.43-27.597-46.43-44.278 0-15.444 21.262-28.492 46.43-28.492s46.43 13.048 46.43 28.492c0 16.681-21.7 44.278-46.43 44.278z"/><path d="m135.861 270.227c14.642 0 26.554-17.812 26.554-39.706s-11.912-39.706-26.554-39.706c-14.643 0-26.555 17.812-26.555 39.706s11.913 39.706 26.555 39.706z"/><path d="m376.13 270.227c14.642 0 26.554-17.812 26.554-39.706s-11.912-39.706-26.554-39.706c-14.643 0-26.555 17.812-26.555 39.706s11.912 39.706 26.555 39.706z"/></g></g></svg>